<?xml version="1.0" standalone="no"?>
<!DOCTYPE svg PUBLIC "-//W3C//DTD SVG 20010904//EN"
 "http://www.w3.org/TR/2001/REC-SVG-20010904/DTD/svg10.dtd">
<svg version="1.0" xmlns="http://www.w3.org/2000/svg"
 width="800.000000pt" height="375.000000pt" viewBox="0 0 800.000000 375.000000"
 preserveAspectRatio="xMidYMid meet">

<g transform="translate(0.000000,375.000000) scale(0.100000,-0.100000)"
fill="#000000" stroke="none">
<path d="M0 1875 l0 -1875 692 0 692 0 -49 53 -50 52 55 -53 56 -52 537 0
c295 0 537 3 537 6 0 3 -6 12 -14 19 -10 11 -51 15 -158 18 l-143 3 146 2
c144 2 146 2 169 -23 15 -16 34 -25 54 -25 l30 0 -59 60 c-77 78 -67 78 13 0
l62 -60 235 0 235 0 0 28 c0 21 -19 46 -83 110 l-82 82 -250 3 -250 2 254 3
254 2 83 -82 c70 -70 84 -88 84 -115 l0 -33 55 0 55 0 0 48 c0 46 -2 49 -87
134 -49 47 -95 88 -103 91 -10 4 -9 6 6 6 13 1 51 -30 107 -88 86 -88 87 -89
87 -140 0 -44 3 -51 20 -51 18 0 20 7 20 78 l0 77 -77 77 c-71 70 -82 77 -123
81 l-45 4 45 1 c44 2 47 0 128 -81 l82 -82 0 -78 0 -77 45 0 45 0 0 92 0 93
-122 125 -123 125 128 -125 127 -125 0 -92 0 -93 680 0 680 0 0 93 0 92 118
115 117 115 -113 -115 -112 -115 0 -93 0 -92 45 0 45 0 0 78 0 77 84 84 c72
72 87 82 112 78 l29 -4 -30 -2 c-24 -1 -48 -18 -108 -79 l-77 -77 0 -78 c0
-70 2 -77 20 -77 17 0 20 7 20 51 0 50 1 53 78 131 42 44 86 84 97 90 11 6
-22 -32 -73 -84 -90 -91 -92 -94 -92 -141 l0 -47 55 0 55 0 0 32 c0 26 14 45
84 115 l84 83 254 -2 253 -3 -250 -2 -250 -3 -82 -82 c-64 -64 -83 -89 -83
-110 l0 -28 238 0 237 0 58 60 c32 33 61 60 65 60 3 0 -20 -27 -53 -60 l-59
-60 30 0 c20 0 39 9 54 25 23 25 25 25 169 23 l146 -2 -143 -3 c-107 -3 -148
-7 -158 -18 -8 -7 -14 -16 -14 -19 0 -3 242 -6 537 -6 l537 0 56 53 55 52 -50
-53 -49 -52 692 0 692 0 0 1875 0 1875 -917 0 -917 0 35 -37 34 -38 -40 38
-41 37 -174 0 -175 0 95 -97 95 -98 -100 98 -100 97 -160 0 -160 0 166 -165
c91 -91 162 -165 159 -165 -4 0 -81 74 -173 165 -147 146 -170 165 -199 165
-32 0 -26 -7 167 -202 l200 -203 -205 203 -205 202 -92 0 -92 0 -4 -42 -4 -43
-1 43 -2 42 -1189 0 -1190 0 -4 -32 -4 -33 -1 33 -2 32 -92 0 -93 0 -205 -202
-205 -203 200 203 c194 196 199 202 167 202 -30 0 -52 -18 -200 -165 -115
-115 -172 -165 -186 -164 -21 2 -21 2 0 6 11 2 92 76 179 163 l160 160 -160 0
-160 0 -100 -97 -100 -98 95 98 95 97 -176 0 -175 0 -34 -35 c-19 -19 -37 -35
-42 -35 -4 0 9 16 30 35 l37 34 -917 1 -918 0 0 -1875z m3654 1682 c16 -25
-16 -56 -38 -37 -19 15 -20 32 -4 48 15 15 28 11 42 -11z m740 0 c16 -25 -16
-56 -38 -37 -19 15 -20 32 -4 48 15 15 28 11 42 -11z m-2446 -134 c-16 -2 -40
-2 -55 0 -16 2 -3 4 27 4 30 0 43 -2 28 -4z m1076 -15 c-10 -13 -29 -33 -41
-46 -13 -13 -23 -32 -23 -43 0 -26 -28 -36 -47 -16 -13 13 -14 19 -3 31 7 9
20 16 29 16 9 0 35 18 56 40 42 43 59 54 29 18z m2038 -58 c8 0 21 -7 28 -16
11 -12 10 -18 -3 -31 -21 -21 -47 -9 -47 22 0 14 -7 28 -14 31 -8 3 -27 22
-42 42 l-27 37 44 -42 c25 -24 52 -43 61 -43z m1056 73 c-15 -2 -42 -2 -60 0
-18 2 -6 4 27 4 33 0 48 -2 33 -4z m-5122 -74 c3 -6 0 -17 -7 -25 -18 -17 -44
-2 -36 20 7 18 33 21 43 5z m6043 -3 c9 -10 8 -16 -4 -26 -19 -16 -41 1 -32
24 8 20 21 20 36 2z m-4466 -98 c-28 -29 -49 -58 -46 -64 2 -6 -3 -17 -12 -24
-13 -11 -19 -11 -32 3 -21 20 -10 47 20 47 14 0 40 17 67 45 24 25 46 45 49
45 3 0 -18 -24 -46 -52z m2925 -38 c29 0 39 -27 19 -47 -13 -14 -19 -14 -32
-3 -9 7 -14 18 -12 24 3 6 -18 36 -47 66 l-51 55 50 -48 c30 -27 60 -47 73
-47z m-3598 -11 c0 -24 -27 -36 -43 -20 -7 7 -63 12 -151 13 l-141 2 139 3
c103 3 142 7 152 18 19 18 44 9 44 -16z m490 27 c0 -3 -7 -12 -16 -20 -12 -13
-39 -16 -133 -16 -74 0 -121 -4 -128 -11 -7 -7 -19 -9 -27 -6 -17 7 -21 32 -7
41 5 4 7 -3 4 -14 -4 -13 0 -20 9 -20 22 0 29 12 17 27 -9 9 -8 13 0 13 6 0
11 -4 11 -10 0 -6 46 -10 119 -10 93 0 121 3 131 15 12 15 20 19 20 11z m1721
-163 c22 -41 -12 -72 -41 -38 -10 13 -10 19 4 33 11 14 17 41 18 98 l2 79 3
-75 c2 -41 8 -85 14 -97z m1652 137 c71 0 117 4 117 10 0 6 5 10 11 10 8 0 9
-4 0 -13 -12 -15 -5 -27 17 -27 9 0 13 7 9 20 -3 11 -1 18 4 14 14 -9 10 -34
-7 -41 -8 -3 -20 -1 -27 6 -7 7 -54 11 -128 11 -94 0 -121 3 -133 16 -22 22
-20 31 2 11 15 -14 41 -17 135 -17z m387 9 c0 -5 64 -10 143 -11 l142 -2 -139
-3 c-81 -2 -145 -8 -153 -14 -7 -6 -20 -9 -28 -5 -18 7 -20 43 -2 49 16 5 37
-3 37 -14z m-2223 -152 c15 -16 15 -19 1 -34 -9 -9 -24 -13 -32 -10 -18 7 -22
42 -6 52 6 3 11 41 12 83 l2 77 3 -75 c3 -51 9 -80 20 -93z m625 42 c-18 -7
-22 -14 -17 -31 5 -20 5 -21 -5 -5 -14 21 3 47 29 46 10 0 8 -3 -7 -10z m595
-179 c18 0 35 5 38 10 10 15 45 12 51 -5 4 -8 1 -22 -6 -30 -11 -14 -15 -14
-36 0 -13 8 -36 15 -51 15 -23 0 -48 21 -128 103 l-100 102 100 -97 c84 -82
105 -98 132 -98z m-2172 80 c-70 -71 -96 -90 -118 -90 -15 0 -38 -7 -51 -15
-21 -14 -25 -14 -36 0 -7 8 -10 22 -6 30 6 17 41 20 51 5 3 -5 21 -10 38 -10
27 0 46 14 116 85 47 47 87 85 90 85 3 0 -35 -40 -84 -90z m1403 -72 c-1 -21
3 -43 10 -50 16 -16 15 -33 -4 -48 -12 -11 -18 -10 -32 4 -14 13 -14 20 -4 36
6 11 12 37 12 58 0 32 -7 45 -45 83 -24 24 -45 48 -45 54 0 5 25 -15 56 -45
49 -49 55 -59 52 -92z m-2897 115 l-125 -4 64 -64 c36 -36 62 -65 59 -65 -2 0
-36 32 -74 70 l-69 70 134 -2 135 -2 -124 -3z m5114 -63 c-38 -38 -73 -70 -76
-70 -4 0 22 28 58 63 l65 62 -123 5 -124 6 135 2 134 2 -69 -70z m-3217 53
c-10 -2 -18 -12 -18 -20 0 -9 -3 -14 -6 -10 -12 11 5 37 23 36 17 -1 17 -2 1
-6z m292 -38 c-18 -19 -36 -32 -39 -30 -2 3 11 21 29 40 18 19 36 32 39 30 2
-3 -11 -21 -29 -40z m975 35 c4 -6 -1 -7 -11 -3 -11 4 -22 -1 -30 -12 -11 -15
-14 -16 -14 -4 0 9 3 19 7 22 10 10 41 8 48 -3z m-1308 -76 c3 -8 -2 -23 -11
-32 -15 -15 -17 -15 -32 0 -21 21 -11 48 16 48 11 0 23 -7 27 -16z m1380 0 c8
-21 -19 -46 -40 -38 -17 6 -23 35 -10 47 12 13 44 7 50 -9z m-3347 -33 c0 -21
37 -57 65 -64 19 -5 19 -5 -1 -6 -11 0 -31 10 -44 24 -13 14 -31 25 -41 25
-25 0 -45 28 -30 43 10 9 11 8 6 -5 -5 -12 -1 -20 9 -24 25 -9 32 4 17 29 -13
20 -13 21 2 8 10 -7 17 -21 17 -30z m5278 19 c-14 -22 -6 -35 18 -26 10 4 14
12 9 24 -5 13 -4 14 6 5 15 -15 -5 -43 -30 -43 -10 0 -28 -11 -41 -25 -13 -14
-33 -24 -44 -24 -20 1 -20 1 -1 6 27 7 65 43 65 63 0 9 5 21 12 28 18 18 20
15 6 -8z m-2996 -67 c15 -18 2 -43 -22 -43 -28 0 -36 26 -16 49 9 10 17 28 17
42 2 20 3 19 6 -6 3 -16 9 -36 15 -42z m-2119 40 c-7 -2 -19 -2 -25 0 -7 3 -2
5 12 5 14 0 19 -2 13 -5z m4960 0 c-7 -2 -19 -2 -25 0 -7 3 -2 5 12 5 14 0 19
-2 13 -5z m-1743 -17 c0 -3 -4 -8 -10 -11 -5 -3 -10 -1 -10 4 0 6 5 11 10 11
6 0 10 -2 10 -4z m-2603 -32 c3 -8 -1 -23 -10 -32 -15 -14 -18 -14 -34 0 -10
9 -38 18 -63 21 l-45 4 47 1 c26 1 50 7 53 12 10 16 45 12 52 -6z m3758 6 c3
-5 27 -11 53 -12 l47 -1 -45 -4 c-25 -3 -53 -12 -63 -21 -16 -14 -19 -14 -34
0 -9 9 -13 24 -10 32 7 18 42 22 52 6z m-2373 -47 c-22 -27 -54 -61 -71 -77
-36 -34 -41 -78 -14 -108 20 -23 8 -51 -24 -56 -28 -4 -37 25 -18 54 8 13 15
38 15 56 0 27 12 45 72 105 40 40 74 73 76 73 2 0 -14 -21 -36 -47z m1048
-132 c0 -19 8 -43 17 -53 20 -22 7 -53 -22 -53 -29 0 -42 31 -22 53 33 36 22
72 -43 137 -33 33 -65 69 -71 80 -6 11 23 -14 65 -55 66 -64 76 -79 76 -109z
m-1385 139 c3 -6 -1 -7 -9 -4 -18 7 -21 14 -7 14 6 0 13 -4 16 -10z m1618 -8
c-10 -10 -20 -17 -22 -16 -6 5 20 34 30 34 5 0 1 -8 -8 -18z m-1861 -15 c-19
-21 -22 -34 -22 -120 0 -53 4 -99 10 -102 15 -10 12 -45 -5 -51 -8 -4 -22 -1
-30 6 -14 11 -14 15 0 36 11 17 15 50 15 116 0 80 3 95 22 115 12 13 24 23 26
23 3 0 -4 -10 -16 -23z m2128 -114 c0 -53 5 -101 12 -112 14 -22 4 -51 -17
-51 -21 0 -31 29 -17 51 7 11 12 58 12 111 0 81 -3 95 -22 117 l-23 26 28 -24
c26 -23 27 -29 27 -118z m-3960 82 c15 -18 6 -45 -13 -45 -8 0 -20 7 -27 15
-10 12 -10 18 0 30 16 19 24 19 40 0z m5800 0 c10 -12 10 -18 0 -30 -16 -19
-39 -19 -46 0 -6 15 11 45 26 45 4 0 13 -7 20 -15z m-4275 -50 c51 -49 62 -55
99 -55 23 0 47 5 53 11 17 17 43 3 43 -21 0 -28 -26 -36 -49 -16 -10 9 -35 16
-57 16 -35 0 -46 7 -99 60 -74 75 -67 79 10 5z m2720 -5 c-53 -53 -64 -60 -99
-60 -22 0 -47 -7 -57 -16 -23 -20 -49 -12 -49 16 0 24 26 38 43 21 6 -6 30
-11 53 -11 37 0 48 6 99 55 77 74 84 70 10 -5z m-2231 34 c7 -19 -10 -44 -31
-44 -17 0 -27 24 -19 45 7 20 42 19 50 -1z m1781 -14 c0 -18 -6 -26 -23 -28
-13 -2 -25 3 -28 12 -10 26 4 48 28 44 17 -2 23 -10 23 -28z m-3037 -30 c29 0
39 -27 19 -47 -13 -13 -19 -14 -31 -3 -9 7 -16 20 -16 28 0 9 -12 30 -27 46
l-28 31 31 -27 c16 -16 40 -28 52 -28z m4299 22 c-15 -15 -27 -35 -27 -44 0
-8 -7 -21 -16 -28 -12 -11 -18 -10 -31 3 -21 20 -10 47 20 47 13 0 34 11 47
25 13 14 26 25 29 25 2 0 -7 -13 -22 -28z m-4738 -46 c9 -11 8 -17 -4 -30 -15
-15 -45 -12 -45 5 0 5 -15 10 -32 10 l-33 2 30 4 c17 3 34 9 40 14 13 13 31
11 44 -5z m5166 4 c3 -5 21 -11 38 -11 l32 -2 -30 -4 c-16 -3 -37 -11 -46 -19
-15 -13 -19 -13 -33 2 -13 12 -14 19 -5 30 13 16 35 18 44 4z m-5321 -50 c-21
-22 -50 -47 -64 -56 -14 -9 0 9 30 40 30 31 59 56 64 56 5 0 -8 -18 -30 -40z
m5470 -19 c22 -22 38 -43 35 -45 -2 -2 -29 21 -59 51 -30 31 -46 51 -35 45 11
-6 38 -29 59 -51z m-4259 -92 c-5 -6 -55 0 -55 7 0 3 13 3 29 2 16 -1 28 -5
26 -9z m60 -19 c27 -29 32 -30 113 -30 61 0 87 4 98 15 20 20 31 19 43 -4 15
-27 -13 -50 -40 -33 -10 7 -55 12 -102 12 -81 0 -84 1 -121 35 -21 19 -34 35
-29 35 5 0 22 -13 38 -30z m2899 -5 c-37 -34 -40 -35 -121 -35 -47 0 -92 -5
-102 -12 -27 -17 -55 6 -40 33 12 23 37 25 45 4 5 -12 25 -15 93 -15 84 0 88
1 116 30 16 17 33 30 38 30 5 0 -8 -16 -29 -35z m119 28 c-7 -2 -19 -2 -25 0
-7 3 -2 5 12 5 14 0 19 -2 13 -5z m-3145 -60 c3 -19 -1 -23 -22 -23 -14 0 -26
5 -26 10 0 6 -81 11 -217 12 l-218 3 218 2 c143 2 217 7 217 14 0 21 45 4 48
-18z m3192 17 c0 -6 81 -11 218 -12 l217 -3 -217 -2 c-134 -2 -218 -7 -218
-13 0 -6 -11 -10 -25 -10 -18 0 -25 5 -25 18 0 10 3 22 7 25 10 11 43 8 43 -3z
m-1872 -27 c2 -8 -5 -13 -17 -13 -12 0 -21 6 -21 16 0 18 31 15 38 -3z m-724
-48 c8 -9 13 -22 10 -30 -7 -17 -54 -21 -54 -5 0 6 -52 11 -132 12 l-133 2
130 3 c101 3 131 7 138 18 10 19 22 19 41 0z m1989 0 c11 -11 47 -15 143 -18
l129 -3 -132 -2 c-81 -1 -133 -6 -133 -12 0 -5 -11 -10 -25 -10 -20 0 -25 5
-25 23 0 38 18 48 43 22z m-3548 -6 c4 -6 17 -14 29 -19 l21 -9 -22 0 c-13 -1
-23 -5 -23 -11 0 -16 -40 -12 -46 5 -13 33 24 63 41 34z m5110 -19 c0 -18 -6
-26 -22 -28 -13 -2 -23 1 -23 7 0 6 -12 12 -27 12 -23 1 -24 2 -6 6 12 2 27
11 34 19 18 22 44 13 44 -16z m-4525 13 c-32 -6 -58 -30 -62 -57 -4 -29 -53
-30 -53 -1 0 12 8 21 20 24 11 2 31 12 44 22 13 11 35 18 50 18 l26 -2 -25 -4z
m3951 -12 c13 -10 33 -20 44 -22 12 -3 20 -12 20 -24 0 -28 -48 -28 -53 0 -5
26 -21 45 -47 55 -15 7 -16 9 -4 9 9 1 27 -7 40 -18z m-3864 3 c-3 -3 -12 -4
-19 -1 -8 3 -5 6 6 6 11 1 17 -2 13 -5z m3750 0 c-3 -3 -12 -4 -19 -1 -8 3 -5
6 6 6 11 1 17 -2 13 -5z m-5170 -20 c9 -23 -13 -40 -32 -24 -12 10 -13 16 -4
26 15 18 28 18 36 -2z m878 -4 c13 -15 32 -20 74 -22 l56 -2 -53 -3 c-45 -4
-57 0 -83 21 -17 15 -26 26 -21 26 5 0 17 -9 27 -20z m4816 -6 c-25 -21 -38
-25 -78 -21 l-48 3 51 2 c37 1 56 8 69 22 10 11 22 20 27 20 5 0 -4 -12 -21
-26z m906 15 c14 -14 6 -39 -12 -39 -18 0 -28 17 -21 35 6 18 18 19 33 4z
m-4703 -55 c19 -7 21 -37 3 -52 -10 -9 -19 -8 -33 3 -11 7 -38 15 -60 18 l-39
4 41 1 c23 1 47 9 54 17 14 17 13 17 34 9z m2806 -9 c7 -9 32 -16 59 -17 l46
-1 -45 -4 c-25 -3 -53 -11 -62 -20 -30 -27 -65 16 -36 45 16 16 23 15 38 -3z
m-3500 -30 c15 -18 -2 -45 -30 -45 -9 0 -25 -9 -35 -20 -11 -13 -30 -20 -49
-19 l-31 2 34 6 c24 4 39 15 50 36 34 62 39 66 61 40z m4194 9 c9 -3 16 -15
16 -25 0 -28 30 -57 65 -62 l30 -4 -31 -2 c-20 0 -37 6 -49 19 -10 11 -26 20
-35 20 -28 0 -45 27 -30 45 14 17 13 17 34 9z m-4735 -136 c18 -11 18 -12 -6
-31 -22 -18 -26 -18 -40 -4 -13 13 -14 19 -3 31 15 19 24 20 49 4z m409 -16
c4 -29 -26 -42 -43 -19 -7 10 -18 17 -26 17 -8 0 -3 7 11 14 34 19 54 15 58
-12z m4478 13 c18 -9 22 -15 13 -15 -9 0 -19 -7 -23 -15 -3 -8 -12 -15 -21
-15 -18 0 -30 24 -21 45 7 19 16 19 52 0z m404 -1 c11 -12 10 -18 -3 -31 -14
-14 -18 -14 -40 4 -23 17 -23 20 -9 31 24 15 37 14 52 -4z m-5476 -47 c-32
-34 -55 -51 -66 -49 -11 3 -18 -2 -18 -10 0 -22 12 -29 27 -17 8 7 13 8 13 1
0 -17 -28 -22 -40 -7 -16 19 -5 45 18 45 10 0 38 20 62 45 61 62 64 57 4 -8z
m5679 -37 c23 0 33 -26 17 -45 -12 -15 -40 -10 -40 7 0 7 5 6 13 -1 15 -12 27
-5 27 17 0 9 -7 13 -17 10 -12 -2 -34 14 -63 47 l-44 50 45 -42 c24 -24 53
-43 62 -43z m-4973 9 c0 -24 -27 -36 -43 -20 -7 7 -62 12 -146 13 l-136 2 129
3 c89 3 135 8 148 18 25 17 48 9 48 -16z m4250 10 c0 -5 64 -10 143 -11 l142
-2 -139 -3 c-81 -2 -145 -8 -153 -14 -7 -6 -20 -9 -28 -5 -18 7 -20 43 -2 49
16 5 37 -3 37 -14z m-5030 -324 c-13 -16 -4 -38 14 -33 6 2 33 -21 61 -52 l49
-55 -50 48 c-27 26 -58 47 -67 47 -23 0 -33 26 -17 45 7 8 15 15 17 15 3 0 0
-7 -7 -15z m5777 -29 c-4 -9 -14 -16 -24 -16 -9 0 -38 -19 -62 -42 l-45 -43
44 51 c25 27 50 48 56 46 19 -6 27 17 13 36 -12 16 -12 16 5 0 11 -9 16 -23
13 -32z m-4999 -22 c4 -27 -22 -38 -42 -19 -10 11 -49 15 -152 18 l-139 3 142
2 c86 1 144 6 148 13 11 17 40 5 43 -17z m4247 16 c4 -6 68 -11 153 -12 l147
-2 -143 -3 c-108 -3 -148 -7 -158 -18 -18 -17 -44 -9 -44 14 0 29 31 44 45 21z
m-4767 -68 c20 -18 20 -18 1 -30 -39 -25 -76 0 -49 33 16 19 22 19 48 -3z
m412 3 c10 -12 10 -18 0 -30 -15 -19 -29 -19 -54 0 -20 15 -20 15 0 30 25 19
39 19 54 0z m258 -13 c5 -32 38 -64 76 -73 l31 -7 -31 -1 c-21 -1 -38 7 -54
24 -13 14 -31 25 -40 25 -26 0 -41 20 -29 42 14 25 43 19 47 -10z m3951 10
c12 -22 -3 -42 -29 -42 -9 0 -27 -11 -40 -25 -17 -18 -33 -25 -59 -24 l-36 1
37 8 c38 7 77 43 78 71 0 33 33 40 49 11z m266 0 l23 -18 -30 -13 c-26 -12
-32 -11 -46 2 -13 13 -13 19 -2 31 16 21 27 20 55 -2z m405 3 c24 -29 -21 -60
-48 -33 -9 9 -8 16 5 30 20 22 27 22 43 3z m-6113 -21 c-3 -3 -12 -4 -19 -1
-8 3 -5 6 6 6 11 1 17 -2 13 -5z m6916 -1 c-7 -2 -19 -2 -25 0 -7 3 -2 5 12 5
14 0 19 -2 13 -5z m-4646 -59 c3 -8 -1 -23 -10 -32 -15 -14 -18 -14 -34 1 -11
9 -41 17 -73 20 l-55 3 57 2 c31 1 60 7 63 12 10 16 45 12 52 -6z m2398 6 c3
-5 34 -11 68 -12 l62 -2 -60 -3 c-37 -3 -67 -10 -78 -20 -16 -15 -19 -15 -34
-1 -9 9 -13 24 -10 32 7 18 42 22 52 6z m-3370 -20 c10 -11 28 -20 40 -20 29
0 41 -29 21 -48 -12 -13 -18 -13 -30 -2 -9 7 -16 20 -16 30 0 25 -30 48 -70
53 l-35 4 36 1 c25 2 42 -4 54 -18z m4345 13 c-40 -5 -70 -28 -70 -53 0 -10
-7 -23 -16 -30 -12 -11 -18 -11 -30 2 -20 19 -8 48 21 48 12 0 30 9 40 20 12
14 29 20 54 18 l36 -1 -35 -4z m-3767 -13 c-12 -5 -34 -5 -50 0 -24 7 -21 8
22 9 38 0 45 -2 28 -9z m3202 0 c-3 -5 -19 -10 -35 -10 -16 0 -32 5 -35 10 -4
6 10 10 35 10 25 0 39 -4 35 -10z m-800 -50 c3 -5 -3 -10 -15 -10 -12 0 -18 5
-15 10 3 6 10 10 15 10 5 0 12 -4 15 -10z m-2207 -23 c4 -22 -23 -33 -51 -19
-12 6 -38 13 -57 15 -33 4 -33 4 7 5 23 1 45 7 48 13 10 16 49 6 53 -14z
m2798 14 c5 -6 29 -11 54 -14 l45 -4 -47 -1 c-26 -1 -50 -6 -53 -12 -8 -13
-42 -13 -50 0 -18 29 26 55 51 31z m-3440 -58 c10 -34 21 -48 45 -60 16 -9 19
-13 8 -13 -9 0 -28 9 -42 20 -14 11 -32 20 -40 20 -20 0 -30 17 -23 35 8 21
46 19 52 -2z m4079 -8 c0 -13 -8 -21 -21 -23 -12 -2 -30 -12 -40 -23 -9 -10
-22 -19 -27 -19 -6 0 -1 10 11 23 12 13 22 30 22 38 0 22 11 30 35 27 12 -2
20 -10 20 -23z m-4396 -2 c-40 -3 -62 -10 -74 -23 -10 -11 -22 -20 -27 -20 -5
0 4 11 19 25 23 20 37 24 83 23 l55 -2 -56 -3z m4746 -18 c17 -14 25 -25 19
-25 -6 0 -19 9 -29 20 -12 13 -34 20 -74 23 l-56 3 55 2 c45 1 60 -3 85 -23z
m-4950 -5 c3 -5 16 -10 28 -11 15 0 17 -2 7 -6 -8 -3 -22 -12 -31 -20 -20 -17
-49 -7 -49 16 0 29 31 44 45 21z m1569 -13 c8 -13 6 -21 -7 -34 -16 -16 -20
-16 -40 -3 -15 10 -61 17 -147 21 l-125 5 128 2 c101 2 132 5 144 17 18 18 32
16 47 -8z m1986 8 c10 -12 40 -15 139 -17 l126 -2 -125 -5 c-83 -4 -132 -11
-147 -20 -18 -12 -24 -13 -37 -2 -19 16 -20 33 -4 49 16 16 33 15 48 -3z
m1558 -11 c4 -29 -26 -39 -49 -18 -18 16 -18 18 -1 30 24 19 46 13 50 -12z
m-3083 -23 c7 -12 -12 -24 -25 -16 -11 7 -4 25 10 25 5 0 11 -4 15 -9z m-1067
-48 c5 -10 7 -24 5 -30 -6 -15 -45 -17 -59 -3 -5 5 -97 11 -209 13 l-200 2
201 3 c165 2 204 5 214 17 17 20 37 19 48 -2z m3192 2 c10 -12 49 -15 214 -17
l201 -3 -200 -2 c-112 -2 -204 -8 -209 -13 -6 -6 -20 -10 -33 -10 -17 0 -23 6
-23 23 0 39 26 50 50 22z m-2806 -12 c9 -21 -16 -46 -37 -37 -9 3 -17 10 -17
15 0 5 -39 9 -86 9 -80 0 -89 -2 -118 -28 -29 -25 -40 -28 -114 -31 -55 -1
-82 1 -82 9 0 7 28 10 86 9 81 -2 87 0 110 25 23 24 30 26 114 26 49 0 92 5
95 10 10 16 42 12 49 -7z m2421 7 c3 -5 46 -10 94 -10 80 0 91 -2 115 -25 30
-28 25 -27 123 -25 41 1 74 -3 78 -9 4 -8 -22 -11 -83 -11 -85 0 -89 1 -117
30 -28 29 -32 30 -117 30 -48 0 -88 -4 -88 -9 0 -5 -8 -12 -17 -15 -21 -9 -46
16 -37 37 7 19 39 23 49 7z m-1920 -150 c0 -18 -6 -26 -21 -28 -11 -2 -53 -34
-94 -72 l-73 -70 -246 2 -246 3 245 2 245 3 67 67 c38 37 68 75 68 83 0 21 21
41 40 38 9 -2 15 -14 15 -28z m1423 -1 c2 -16 28 -50 70 -92 l67 -67 250 -3
250 -2 -250 -2 -250 -2 -74 69 c-40 39 -82 70 -93 70 -21 0 -33 22 -24 46 10
26 50 13 54 -17z m-1613 -39 c0 -19 -6 -26 -25 -28 -14 -2 -37 -15 -51 -28
l-25 -24 -245 3 -244 2 246 3 245 2 28 29 c15 15 26 32 25 37 -4 25 3 35 24
32 16 -2 22 -10 22 -28z m1796 18 c1 -7 1 -17 0 -22 -1 -5 10 -22 25 -37 l28
-29 260 -2 261 -3 -258 -2 -259 -3 -30 25 c-16 14 -38 25 -49 25 -22 0 -34 22
-25 45 7 18 46 20 47 3z m-3983 -96 c3 -16 -2 -22 -17 -22 -24 0 -35 15 -27
36 9 23 40 13 44 -14z m6167 3 c0 -13 -8 -21 -22 -23 -17 -3 -23 2 -23 16 0
10 3 22 7 26 13 13 38 1 38 -19z m-3847 -73 c-2 -9 -13 -18 -24 -20 -12 -2
-54 -34 -94 -72 l-73 -70 -216 2 -216 3 215 2 215 3 67 67 c38 37 68 75 68 83
0 9 5 21 12 28 15 15 50 -4 46 -26z m1542 -1 c0 -9 30 -47 68 -84 l67 -67 230
-3 230 -2 -230 -3 -230 -2 -74 70 c-40 39 -82 70 -92 70 -28 0 -36 30 -14 46
21 16 45 2 45 -25z m-3297 -18 c-7 -2 -21 -2 -30 0 -10 3 -4 5 12 5 17 0 24
-2 18 -5z m5045 0 c-10 -2 -26 -2 -35 0 -10 3 -2 5 17 5 19 0 27 -2 18 -5z
m-5248 -58 c10 -12 10 -18 0 -30 -16 -19 -39 -19 -46 0 -6 15 11 45 26 45 4 0
13 -7 20 -15z m5439 1 c13 -16 4 -46 -14 -46 -7 0 -18 7 -25 15 -10 12 -10 18
0 30 15 19 24 19 39 1z m-3469 -62 c0 -17 -6 -24 -20 -24 -10 0 -30 -11 -44
-25 -25 -24 -28 -25 -158 -23 l-133 2 130 3 c117 3 132 6 152 25 13 12 21 28
19 35 -7 17 21 43 39 37 8 -4 15 -17 15 -30z m1511 12 c1 -6 1 -16 0 -22 -1
-6 9 -20 22 -32 20 -19 36 -22 152 -25 l130 -3 -133 -2 c-129 -2 -134 -1 -155
22 -12 13 -31 25 -42 27 -23 5 -33 38 -14 49 15 10 39 2 40 -14z m-1223 -22
c4 -28 -25 -39 -48 -19 -9 8 -34 15 -55 15 -30 0 -47 -7 -74 -32 l-34 -33 28
38 c25 34 31 37 76 37 26 0 51 5 54 11 12 18 50 6 53 -17z m937 16 c3 -5 25
-10 49 -10 36 0 47 -5 77 -37 l34 -38 -35 33 c-40 36 -100 44 -130 17 -10 -9
-25 -13 -34 -9 -16 6 -22 35 -9 47 10 10 41 8 48 -3z m-3007 -70 c2 -16 48
-70 125 -150 l122 -125 -125 123 c-69 67 -133 122 -143 122 -20 0 -32 23 -23
46 9 24 41 12 44 -16z m80 0 c2 -16 46 -69 120 -145 l117 -120 -120 118 c-66
64 -128 117 -138 117 -20 0 -32 23 -23 46 9 24 41 12 44 -16z m80 0 c2 -16 42
-65 105 -130 l102 -105 -105 103 c-58 56 -113 102 -123 102 -20 0 -32 23 -23
46 9 24 41 12 44 -16z m82 15 c6 -8 9 -19 5 -25 -11 -17 126 -148 160 -153
l30 -4 -30 -2 c-25 -1 -42 11 -100 69 -37 38 -78 70 -89 72 -24 4 -34 37 -14
49 18 12 24 11 38 -6z m4578 6 c20 -12 11 -45 -13 -49 -11 -2 -52 -35 -91 -74
-61 -60 -75 -69 -100 -65 l-29 4 30 2 c23 1 45 17 93 66 35 36 65 75 67 85 8
39 19 47 43 31z m87 -21 c0 -17 -6 -26 -20 -28 -11 -2 -67 -49 -125 -105
l-105 -102 103 105 c56 58 102 112 103 120 0 10 2 11 6 3 8 -21 33 -15 33 8 0
16 -5 20 -20 16 -11 -3 -17 -1 -14 4 12 19 39 4 39 -21z m80 0 c0 -17 -6 -26
-20 -28 -11 -2 -72 -54 -135 -115 l-115 -112 113 115 c69 72 112 123 112 136
0 26 9 36 30 32 9 -2 15 -14 15 -28z m80 0 c0 -17 -6 -26 -20 -28 -11 -2 -74
-56 -140 -120 l-120 -117 118 120 c73 75 117 128 117 141 0 26 9 36 30 32 9
-2 15 -14 15 -28z m-3935 -75 c8 -10 33 -16 69 -17 l56 -2 -50 -3 c-27 -2 -60
-9 -73 -15 -18 -10 -26 -9 -39 5 -13 13 -14 19 -3 31 16 20 24 20 40 1z m2800
-1 c11 -12 10 -18 -3 -31 -13 -14 -21 -15 -39 -5 -13 6 -43 13 -68 15 l-45 4
51 1 c32 1 56 8 64 17 16 19 24 19 40 -1z m-2381 -108 c15 -18 4 -46 -19 -46
-28 0 -45 27 -30 45 16 19 34 19 49 1z m129 -16 c2 -14 27 -50 55 -80 l52 -55
-55 53 c-31 28 -63 52 -72 52 -26 0 -43 27 -28 45 19 22 44 14 48 -15z m132 3
c5 -22 15 -36 69 -98 14 -16 3 -9 -24 18 -28 26 -60 47 -72 47 -25 0 -38 27
-22 47 17 19 42 12 49 -14z m78 15 c7 -7 12 -19 12 -27 0 -9 26 -43 58 -76
l57 -60 -60 58 c-37 35 -69 57 -83 57 -24 0 -38 21 -28 45 7 18 28 19 44 3z
m246 -10 c8 -14 7 -20 -6 -30 -10 -8 -19 -31 -21 -58 l-4 -45 -1 53 c-1 28 -6
52 -12 52 -11 0 -14 33 -3 44 11 11 35 3 47 -16z m803 6 c3 -9 1 -25 -5 -35
-7 -10 -12 -42 -13 -71 0 -39 -3 -48 -9 -33 -5 11 -9 35 -9 53 -1 18 -6 41
-13 51 -15 24 -4 51 22 51 11 0 23 -7 27 -16z m238 -14 c0 -18 -6 -26 -22 -28
-12 -2 -52 -31 -90 -64 l-68 -62 63 65 c35 37 62 73 62 85 0 27 9 36 35 32 14
-2 20 -10 20 -28z m84 16 c16 -19 3 -46 -22 -46 -12 0 -47 -24 -81 -57 l-60
-58 44 53 c24 30 49 56 57 59 7 3 13 15 13 27 0 37 27 49 49 22z m131 -1 c15
-18 -2 -45 -28 -45 -9 0 -41 -24 -72 -52 l-55 -53 53 55 c28 31 52 65 52 76 0
36 27 46 50 19z m130 0 c10 -12 10 -18 0 -30 -7 -8 -18 -15 -25 -15 -7 0 -18
7 -25 15 -10 12 -10 18 0 30 7 8 18 15 25 15 7 0 18 -7 25 -15z m-2262 -22
c-15 -2 -42 -2 -60 0 -18 2 -6 4 27 4 33 0 48 -2 33 -4z m2445 0 c-7 -2 -21
-2 -30 0 -10 3 -4 5 12 5 17 0 24 -2 18 -5z m120 0 c-18 -2 -48 -2 -65 0 -18
2 -4 4 32 4 36 0 50 -2 33 -4z m-1595 -64 c2 -14 19 -41 38 -60 23 -22 34 -41
33 -58 l-2 -26 -4 25 c-6 34 -62 90 -89 90 -28 0 -37 14 -29 41 10 30 49 22
53 -12z m617 1 c0 -16 -7 -26 -22 -30 -33 -8 -91 -58 -96 -83 -4 -21 -4 -21
-6 -1 0 11 14 35 34 54 19 19 35 44 35 55 0 28 9 37 35 33 14 -2 20 -10 20
-28z m-3042 -218 c-93 -3 -120 5 -142 41 -11 18 -8 17 16 -5 27 -26 35 -28
113 -28 l85 0 -95 98 -95 97 103 -100 102 -100 -87 -3z m5432 98 l-90 -90 85
0 c81 0 85 1 119 33 24 21 29 24 16 7 -37 -46 -47 -49 -145 -50 l-95 0 95 95
c52 52 97 95 100 95 2 0 -36 -40 -85 -90z m-3017 38 c7 -7 12 -20 12 -29 0 -9
7 -22 15 -29 8 -7 15 -27 14 -44 l-1 -31 -7 31 c-11 44 -19 54 -46 54 -27 0
-41 26 -24 46 14 17 22 17 37 2z m621 -2 c16 -19 3 -46 -24 -46 -25 0 -40 -14
-48 -45 -4 -19 -5 -19 -6 1 0 12 6 27 14 34 8 7 15 20 15 29 0 17 18 41 31 41
4 0 12 -6 18 -14z m-449 -71 c10 -13 10 -19 -4 -33 -9 -10 -17 -34 -17 -53 -2
-33 -2 -33 -6 -4 -2 17 -9 40 -15 52 -21 41 13 72 42 38z m287 -1 c3 -8 1 -25
-5 -37 -6 -12 -13 -33 -15 -47 -4 -23 -4 -22 -6 4 0 16 -8 38 -17 48 -14 14
-14 20 -4 33 16 19 39 19 47 -1z m-3267 -109 c15 -17 5 -35 -20 -35 -22 0 -33
23 -17 39 15 15 22 14 37 -4z m6237 4 c16 -16 5 -39 -17 -39 -25 0 -35 18 -20
35 15 18 22 19 37 4z m-2780 -221 c-2 -18 -4 -6 -4 27 0 33 2 48 4 33 2 -15 2
-42 0 -60z m-3514 65 c-7 -2 -21 -2 -30 0 -10 3 -4 5 12 5 17 0 24 -2 18 -5z
m2804 -55 c-2 -13 -4 -3 -4 22 0 25 2 35 4 23 2 -13 2 -33 0 -45z m3546 55
c-7 -2 -21 -2 -30 0 -10 3 -4 5 12 5 17 0 24 -2 18 -5z"/>
<path d="M2484 3189 c-10 -17 13 -36 27 -22 12 12 4 33 -11 33 -5 0 -12 -5
-16 -11z"/>
<path d="M5484 3189 c-10 -17 13 -36 27 -22 12 12 4 33 -11 33 -5 0 -12 -5
-16 -11z"/>
<path d="M1866 3213 c-12 -12 -6 -33 9 -33 8 0 15 6 15 14 0 17 -14 28 -24 19z"/>
<path d="M4084 3046 c-8 -22 3 -33 18 -18 9 9 9 15 0 24 -9 9 -13 7 -18 -6z"/>
<path d="M6116 3213 c-12 -12 -6 -33 9 -33 8 0 15 6 15 14 0 17 -14 28 -24 19z"/>
<path d="M3894 3049 c-8 -14 11 -33 25 -25 11 7 4 36 -9 36 -5 0 -12 -5 -16
-11z"/>
<path d="M4355 2861 c-7 -12 12 -24 25 -16 11 7 4 25 -10 25 -5 0 -11 -4 -15
-9z"/>
<path d="M3615 2861 c-7 -12 12 -24 25 -16 11 7 4 25 -10 25 -5 0 -11 -4 -15
-9z"/>
<path d="M2104 2859 c-10 -17 13 -36 27 -22 12 12 4 33 -11 33 -5 0 -12 -5
-16 -11z"/>
<path d="M5864 2859 c-3 -6 -2 -15 2 -19 12 -12 38 5 30 19 -9 14 -23 14 -32
0z"/>
<path d="M2915 2570 c-7 -12 2 -30 16 -30 12 0 12 27 0 35 -5 3 -12 1 -16 -5z"/>
<path d="M5064 2566 c-8 -22 3 -33 18 -18 9 9 9 15 0 24 -9 9 -13 7 -18 -6z"/>
<path d="M1084 2769 c-10 -17 13 -36 27 -22 12 12 4 33 -11 33 -5 0 -12 -5
-16 -11z"/>
<path d="M6884 2769 c-10 -17 13 -36 27 -22 12 12 4 33 -11 33 -5 0 -12 -5
-16 -11z"/>
<path d="M2794 2669 c-10 -17 13 -36 27 -22 12 12 4 33 -11 33 -5 0 -12 -5
-16 -11z"/>
<path d="M5174 2669 c-10 -17 13 -36 27 -22 12 12 4 33 -11 33 -5 0 -12 -5
-16 -11z"/>
<path d="M1400 2676 c0 -8 4 -17 9 -20 11 -7 33 18 24 27 -12 12 -33 7 -33 -7z"/>
<path d="M6566 2681 c-7 -11 18 -33 27 -24 4 3 7 12 7 20 0 15 -26 18 -34 4z"/>
<path d="M2775 2490 c-10 -17 12 -37 25 -24 8 8 6 15 -4 23 -10 9 -16 9 -21 1z"/>
<path d="M5204 2486 c-8 -22 3 -33 18 -18 9 9 9 15 0 24 -9 9 -13 7 -18 -6z"/>
<path d="M2387 2484 c-9 -10 2 -24 19 -24 8 0 14 7 14 15 0 15 -21 21 -33 9z"/>
<path d="M5580 2475 c0 -10 7 -15 18 -13 21 4 19 22 -2 26 -10 2 -16 -3 -16
-13z"/>
<path d="M2992 2398 c6 -18 28 -21 28 -4 0 9 -7 16 -16 16 -9 0 -14 -5 -12
-12z"/>
<path d="M4980 2394 c0 -9 5 -14 12 -12 18 6 21 28 4 28 -9 0 -16 -7 -16 -16z"/>
<path d="M1943 2348 c2 -7 10 -13 17 -13 7 0 15 6 18 13 2 7 -5 12 -18 12 -13
0 -20 -5 -17 -12z"/>
<path d="M6023 2348 c2 -7 10 -13 17 -13 7 0 15 6 18 13 2 7 -5 12 -18 12 -13
0 -20 -5 -17 -12z"/>
<path d="M1884 2279 c-10 -17 13 -36 27 -22 12 12 4 33 -11 33 -5 0 -12 -5
-16 -11z"/>
<path d="M6084 2279 c-10 -17 13 -36 27 -22 12 12 4 33 -11 33 -5 0 -12 -5
-16 -11z"/>
<path d="M1334 2149 c-10 -17 13 -36 27 -22 12 12 4 33 -11 33 -5 0 -12 -5
-16 -11z"/>
<path d="M1752 2144 c4 -21 22 -23 26 -1 2 10 -3 17 -13 17 -10 0 -15 -6 -13
-16z"/>
<path d="M6222 2144 c4 -21 22 -23 26 -1 2 10 -3 17 -13 17 -10 0 -15 -6 -13
-16z"/>
<path d="M6634 2149 c-10 -17 13 -36 27 -22 12 12 4 33 -11 33 -5 0 -12 -5
-16 -11z"/>
<path d="M1866 2093 c-12 -12 -6 -33 9 -33 8 0 15 6 15 14 0 17 -14 28 -24 19z"/>
<path d="M6116 2093 c-12 -12 -6 -33 9 -33 8 0 15 6 15 14 0 17 -14 28 -24 19z"/>
<path d="M1862 1714 c4 -21 22 -23 26 -1 2 10 -3 17 -13 17 -10 0 -15 -6 -13
-16z"/>
<path d="M6112 1714 c4 -21 22 -23 26 -1 2 10 -3 17 -13 17 -10 0 -15 -6 -13
-16z"/>
<path d="M1342 1656 c1 -10 8 -17 13 -17 15 1 12 24 -3 29 -9 3 -13 -2 -10
-12z"/>
<path d="M2010 1651 c0 -12 6 -21 16 -21 9 0 14 7 12 17 -5 25 -28 28 -28 4z"/>
<path d="M5967 1663 c-13 -12 -7 -33 8 -33 8 0 15 9 15 20 0 20 -11 26 -23 13z"/>
<path d="M6634 1659 c-10 -17 13 -36 27 -22 12 12 4 33 -11 33 -5 0 -12 -5
-16 -11z"/>
<path d="M2785 1580 c-3 -6 1 -13 10 -16 19 -8 30 0 20 15 -8 14 -22 14 -30 1z"/>
<path d="M5185 1579 c-10 -15 1 -23 20 -15 9 3 13 10 10 16 -8 13 -22 13 -30
-1z"/>
<path d="M1884 1529 c-10 -17 13 -36 27 -22 12 12 4 33 -11 33 -5 0 -12 -5
-16 -11z"/>
<path d="M6084 1529 c-10 -17 13 -36 27 -22 12 12 4 33 -11 33 -5 0 -12 -5
-16 -11z"/>
<path d="M2585 1500 c-3 -6 1 -13 10 -16 19 -8 30 0 20 15 -8 14 -22 14 -30 1z"/>
<path d="M5385 1499 c-10 -15 1 -23 20 -15 9 3 13 10 10 16 -8 13 -22 13 -30
-1z"/>
<path d="M1940 1445 c0 -10 7 -15 18 -13 21 4 19 22 -2 26 -10 2 -16 -3 -16
-13z"/>
<path d="M6027 1454 c-9 -10 2 -24 19 -24 8 0 14 7 14 15 0 15 -21 21 -33 9z"/>
<path d="M2775 1320 c-8 -13 4 -32 16 -25 12 8 12 35 0 35 -6 0 -13 -4 -16
-10z"/>
<path d="M5202 1316 c1 -10 8 -17 13 -17 15 1 12 24 -3 29 -9 3 -13 -2 -10
-12z"/>
<path d="M3092 1146 c1 -10 8 -17 13 -17 15 1 12 24 -3 29 -9 3 -13 -2 -10
-12z"/>
<path d="M4885 1150 c-8 -13 4 -32 16 -25 12 8 12 35 0 35 -6 0 -13 -4 -16
-10z"/>
<path d="M3212 998 c6 -18 28 -21 28 -4 0 9 -7 16 -16 16 -9 0 -14 -5 -12 -12z"/>
<path d="M4760 995 c0 -8 7 -15 15 -15 8 0 15 7 15 15 0 8 -7 15 -15 15 -8 0
-15 -7 -15 -15z"/>
<path d="M1264 909 c-10 -17 13 -36 27 -22 12 12 4 33 -11 33 -5 0 -12 -5 -16
-11z"/>
<path d="M6704 909 c-10 -17 13 -36 27 -22 12 12 4 33 -11 33 -5 0 -12 -5 -16
-11z"/>
<path d="M3230 855 c0 -8 7 -15 15 -15 8 0 15 7 15 15 0 8 -7 15 -15 15 -8 0
-15 -7 -15 -15z"/>
<path d="M4740 855 c0 -8 7 -15 15 -15 8 0 15 7 15 15 0 8 -7 15 -15 15 -8 0
-15 -7 -15 -15z"/>
<path d="M1450 790 c0 -13 5 -20 13 -17 6 2 12 10 12 17 0 7 -6 15 -12 18 -8
2 -13 -5 -13 -18z"/>
<path d="M1530 790 c0 -11 7 -20 15 -20 8 0 15 9 15 20 0 11 -7 20 -15 20 -8
0 -15 -9 -15 -20z"/>
<path d="M1610 790 c0 -11 7 -20 15 -20 8 0 15 9 15 20 0 11 -7 20 -15 20 -8
0 -15 -9 -15 -20z"/>
<path d="M6440 790 c0 -11 7 -20 15 -20 8 0 15 9 15 20 0 11 -7 20 -15 20 -8
0 -15 -9 -15 -20z"/>
<path d="M6525 800 c-7 -12 2 -30 16 -30 5 0 9 9 9 20 0 21 -15 27 -25 10z"/>
<path d="M2584 709 c-10 -17 13 -36 27 -22 12 12 4 33 -11 33 -5 0 -12 -5 -16
-11z"/>
<path d="M5384 709 c-10 -17 13 -36 27 -22 12 12 4 33 -11 33 -5 0 -12 -5 -16
-11z"/>
<path d="M3130 590 c0 -13 5 -20 13 -17 6 2 12 10 12 17 0 7 -6 15 -12 18 -8
2 -13 -5 -13 -18z"/>
<path d="M3254 599 c-10 -17 13 -36 27 -22 12 12 4 33 -11 33 -5 0 -12 -5 -16
-11z"/>
<path d="M3584 599 c-10 -17 13 -36 27 -22 12 12 4 33 -11 33 -5 0 -12 -5 -16
-11z"/>
<path d="M4384 599 c-10 -17 13 -36 27 -22 12 12 4 33 -11 33 -5 0 -12 -5 -16
-11z"/>
<path d="M4714 599 c-10 -17 13 -36 27 -22 12 12 4 33 -11 33 -5 0 -12 -5 -16
-11z"/>
<path d="M4844 599 c-3 -6 -1 -16 5 -22 9 -9 14 -8 21 3 9 15 4 30 -10 30 -5
0 -12 -5 -16 -11z"/>
<path d="M3674 429 c-10 -17 13 -36 27 -22 12 12 4 33 -11 33 -5 0 -12 -5 -16
-11z"/>
<path d="M4294 429 c-10 -17 13 -36 27 -22 12 12 4 33 -11 33 -5 0 -12 -5 -16
-11z"/>
<path d="M3845 360 c-7 -12 2 -30 16 -30 5 0 9 9 9 20 0 21 -15 27 -25 10z"/>
<path d="M4130 350 c0 -13 5 -20 13 -17 6 2 12 10 12 17 0 7 -6 15 -12 18 -8
2 -13 -5 -13 -18z"/>
</g>
</svg>
